<?xml version="1.0" encoding="UTF-8" standalone="no"?>
<!DOCTYPE svg PUBLIC "-//W3C//DTD SVG 1.1//EN" "http://www.w3.org/Graphics/SVG/1.1/DTD/svg11.dtd">
<svg width="100%" height="100%" viewBox="0 0 3634 1030" version="1.1" xmlns="http://www.w3.org/2000/svg" xmlns:xlink="http://www.w3.org/1999/xlink" xml:space="preserve" xmlns:serif="http://www.serif.com/" style="fill-rule:evenodd;clip-rule:evenodd;stroke-linejoin:round;stroke-miterlimit:10;">
    <g transform="matrix(1,0,0,1,-7773,-5039.16)">
        <g id="Artboard1" transform="matrix(2.86142,0,0,0.810777,9432.62,5039.16)">
            <rect x="-580" y="0" width="1270" height="1270" style="fill:none;"/>
            <g transform="matrix(0.279622,0,0,0.986849,-480.971,-1228.72)">
                <g transform="matrix(0.266584,0,0,0.266584,305.826,1888.55)">
                    <g transform="matrix(1,0,0,1,-2083.33,-2083.33)">
                        <clipPath id="_clip1">
                            <rect x="0" y="0" width="4166.67" height="4166.67"/>
                        </clipPath>
                        <g clip-path="url(#_clip1)">
                            <g id="redgreenbird-icon-full-size" serif:id="redgreenbird icon full size" transform="matrix(4.16667,0,0,4.16667,-4444.46,0)">
                                <g>
                                    <rect x="1066.67" y="0" width="1000" height="1000" style="fill:none;"/>
                                    <g id="Bird" transform="matrix(1.4281,0,0,1.4281,840.886,-35.4507)">
                                        <g id="Body" transform="matrix(-1,1.19894e-16,1.22465e-16,0.979009,262.88,669.274)">
                                            <path d="M0,-336.924C26.429,-310.978 38.371,-303.393 57.856,-271.646C57.8,-286.528 66.739,-375.986 29.226,-416.052C5.22,-422.438 -193.238,-448.499 -316.197,-247.964C-312.725,-232.622 -303.235,-89.01 -419.38,3.223C-414.341,6.19 -305.932,73.01 -185.946,38.195C-192.969,15.541 -203.674,-5.501 -217.348,-24.236C-203.819,-17.281 -191.087,-8.984 -179.34,0.479C-183.696,-27.203 -194.614,-52.725 -210.46,-74.416C-172.464,-54.887 -142.272,-22.332 -125.788,17.355C-95.81,3.458 -68.373,-15.009 -44.364,-37.137C-49.84,-99.692 -73.278,-157.096 -109.506,-204.141C-116.144,-211.685 -130.431,-231.668 -138.658,-242.25C-141.019,-245.287 -142.882,-247.55 -143.92,-248.521C-110.794,-233.693 -41.357,-186.831 15.515,-111.909C22.984,-124.832 29.568,-138.326 35.18,-152.324C35.201,-154.173 29.811,-276.418 0,-336.924Z" style="fill:rgb(0,204,51);fill-rule:nonzero;stroke:black;stroke-width:10px;"/>
                                        </g>
                                        <g id="Head" transform="matrix(1,0,0,1,-143.03,-107.657)">
                                            <g id="Face" transform="matrix(0.75,0,0,0.75,-2886.41,-3456)">
                                                <path d="M4415.53,4912.63C4452.44,4857.71 4657.29,4705.82 4997.44,4870.66C4997.44,4870.66 4897.78,4864.74 4859.91,4894.42C4869.1,4904.39 4969.1,4993.98 4940.49,5137.06C4793.71,5183.18 4791.72,5288.47 4791.72,5288.47C4622.33,5065.31 4379.86,5095.94 4379.86,5095.94C4387.44,5081.23 4410.54,5015.07 4470.22,4978.25L4377.69,5006.86C4377.69,5006.86 4397.61,4943.42 4461.35,4911.77C4432.93,4911.94 4415.53,4912.63 4415.53,4912.63Z" style="fill:rgb(255,0,0);stroke:black;stroke-width:13.33px;stroke-linecap:round;"/>
                                            </g>
                                            <g id="Eye">
                                                <g id="Sklera" transform="matrix(0.360928,0.0336799,-0.0433364,0.464411,-592.843,-2112.37)">
                                                    <path d="M3965.21,4854C3988.47,4804.69 4038.65,4770.53 4096.75,4770.53C4154.86,4770.53 4205.04,4804.69 4228.3,4854C4205.04,4903.3 4165.22,4914.82 4107.11,4914.82C4049.01,4914.82 3988.47,4903.3 3965.21,4854Z" style="fill:white;stroke:black;stroke-width:23.94px;stroke-linecap:round;"/>
                                                </g>
                                                <g id="Iris" transform="matrix(0.75,0,0,0.75,-2886.41,-3456)">
                                                    <path d="M4778.54,4937.8C4794.59,4947.72 4806.74,4965.48 4812.44,4987.04C4809.53,4993.16 4806.1,4998.82 4802.23,5003.93C4796.02,5008.7 4788.23,5011.55 4779.79,5011.55C4759.43,5011.55 4742.91,4995.02 4742.91,4974.66C4742.91,4954.72 4758.76,4938.46 4778.54,4937.8Z" style="stroke:black;stroke-width:13.33px;stroke-linecap:round;"/>
                                                </g>
                                            </g>
                                            <g id="Mouth" transform="matrix(0.505391,-0.132082,-0.115048,0.774658,-5677.73,-16813.6)">
                                                <path d="M18528.7,25336.4C18528.7,25336.4 18593.6,25372.1 18635.2,25355.7" style="fill:none;stroke:black;stroke-width:18.7px;stroke-linecap:round;"/>
                                            </g>
                                        </g>
                                        <g id="Beak" transform="matrix(-1,9.13517e-17,1.37027e-16,1,657.103,274.825)">
                                            <path d="M27.517,-151.875C-37.192,-72.554 -19.834,6.459 -19.8,6.591C-86.109,-24.671 -141.338,-13.855 -155.192,0C-152.816,-11.702 -149.396,-22.426 -145.155,-32.264C-111.409,-110.465 1.878,-142.476 27.517,-151.875Z" style="fill:rgb(255,204,102);fill-rule:nonzero;stroke:black;stroke-width:10px;"/>
                                        </g>
                                    </g>
                                </g>
                            </g>
                        </g>
                    </g>
                </g>
                <g transform="matrix(2.38648,0,0,2.38648,-990.786,-6631.61)">
                    <g transform="matrix(0.881439,0,0,0.881439,63.6968,895.066)">
                        <g transform="matrix(230.348,0,0,230.348,849,3014)">
                            <path d="M0.125,-0C0.108,-0 0.093,-0.006 0.082,-0.018C0.071,-0.029 0.065,-0.044 0.065,-0.061L0.065,-0.474C0.065,-0.491 0.071,-0.506 0.082,-0.518C0.093,-0.529 0.108,-0.535 0.125,-0.535C0.142,-0.535 0.157,-0.529 0.168,-0.518C0.179,-0.506 0.185,-0.491 0.185,-0.474L0.185,-0.38L0.178,-0.447C0.185,-0.463 0.195,-0.477 0.207,-0.49C0.218,-0.502 0.231,-0.512 0.246,-0.521C0.261,-0.529 0.276,-0.535 0.293,-0.539C0.31,-0.543 0.326,-0.545 0.343,-0.545C0.363,-0.545 0.38,-0.539 0.394,-0.528C0.407,-0.517 0.414,-0.503 0.414,-0.488C0.414,-0.466 0.408,-0.45 0.397,-0.441C0.386,-0.431 0.373,-0.426 0.36,-0.426C0.347,-0.426 0.336,-0.428 0.326,-0.433C0.315,-0.438 0.303,-0.44 0.29,-0.44C0.278,-0.44 0.266,-0.437 0.254,-0.432C0.241,-0.426 0.23,-0.417 0.22,-0.405C0.209,-0.393 0.201,-0.378 0.195,-0.361C0.188,-0.343 0.185,-0.322 0.185,-0.298L0.185,-0.061C0.185,-0.044 0.179,-0.029 0.168,-0.018C0.157,-0.006 0.142,-0 0.125,-0Z" style="fill-rule:nonzero;"/>
                        </g>
                        <g transform="matrix(230.348,0,0,230.348,943.903,3014)">
                            <path d="M0.312,0.01C0.255,0.01 0.206,-0.002 0.165,-0.026C0.123,-0.049 0.091,-0.081 0.069,-0.122C0.046,-0.163 0.035,-0.209 0.035,-0.26C0.035,-0.32 0.047,-0.371 0.072,-0.414C0.096,-0.456 0.128,-0.488 0.167,-0.511C0.206,-0.534 0.248,-0.545 0.292,-0.545C0.326,-0.545 0.358,-0.538 0.389,-0.524C0.419,-0.51 0.446,-0.491 0.469,-0.467C0.492,-0.442 0.511,-0.414 0.525,-0.382C0.538,-0.35 0.545,-0.316 0.545,-0.28C0.544,-0.264 0.538,-0.251 0.526,-0.241C0.514,-0.231 0.5,-0.226 0.484,-0.226L0.102,-0.226L0.072,-0.326L0.439,-0.326L0.417,-0.306L0.417,-0.333C0.416,-0.352 0.409,-0.37 0.397,-0.385C0.384,-0.4 0.369,-0.413 0.351,-0.422C0.332,-0.431 0.313,-0.435 0.292,-0.435C0.272,-0.435 0.253,-0.432 0.236,-0.427C0.219,-0.422 0.204,-0.413 0.191,-0.4C0.178,-0.387 0.168,-0.37 0.161,-0.349C0.154,-0.328 0.15,-0.301 0.15,-0.268C0.15,-0.232 0.158,-0.202 0.173,-0.177C0.188,-0.152 0.207,-0.133 0.231,-0.12C0.254,-0.107 0.279,-0.1 0.306,-0.1C0.331,-0.1 0.35,-0.102 0.365,-0.106C0.38,-0.11 0.392,-0.115 0.401,-0.121C0.41,-0.126 0.418,-0.131 0.425,-0.135C0.437,-0.141 0.448,-0.144 0.459,-0.144C0.474,-0.144 0.486,-0.139 0.496,-0.129C0.505,-0.119 0.51,-0.107 0.51,-0.094C0.51,-0.076 0.501,-0.06 0.482,-0.045C0.465,-0.03 0.44,-0.017 0.409,-0.007C0.378,0.005 0.345,0.01 0.312,0.01Z" style="fill-rule:nonzero;"/>
                        </g>
                        <g transform="matrix(230.348,0,0,230.348,1077.5,3014)">
                            <path d="M0.498,-0.74C0.515,-0.74 0.53,-0.734 0.541,-0.723C0.552,-0.712 0.558,-0.697 0.558,-0.679L0.558,-0.061C0.558,-0.044 0.552,-0.029 0.541,-0.018C0.53,-0.006 0.515,-0 0.498,-0C0.481,-0 0.466,-0.006 0.455,-0.018C0.444,-0.029 0.438,-0.044 0.438,-0.061L0.438,-0.11L0.46,-0.101C0.46,-0.092 0.455,-0.082 0.446,-0.07C0.437,-0.057 0.424,-0.045 0.408,-0.033C0.392,-0.021 0.373,-0.011 0.352,-0.003C0.33,0.006 0.306,0.01 0.281,0.01C0.235,0.01 0.193,-0.002 0.156,-0.026C0.119,-0.049 0.089,-0.082 0.068,-0.124C0.046,-0.165 0.035,-0.213 0.035,-0.267C0.035,-0.322 0.046,-0.37 0.068,-0.412C0.089,-0.453 0.118,-0.486 0.155,-0.51C0.192,-0.533 0.232,-0.545 0.277,-0.545C0.306,-0.545 0.332,-0.541 0.356,-0.532C0.38,-0.523 0.401,-0.512 0.419,-0.499C0.436,-0.486 0.45,-0.472 0.46,-0.459C0.469,-0.445 0.474,-0.433 0.474,-0.424L0.438,-0.411L0.438,-0.679C0.438,-0.696 0.444,-0.711 0.455,-0.723C0.466,-0.734 0.481,-0.74 0.498,-0.74ZM0.296,-0.1C0.325,-0.1 0.351,-0.107 0.373,-0.122C0.395,-0.137 0.412,-0.157 0.425,-0.182C0.437,-0.207 0.443,-0.236 0.443,-0.267C0.443,-0.299 0.437,-0.328 0.425,-0.353C0.412,-0.378 0.395,-0.398 0.373,-0.413C0.351,-0.428 0.325,-0.435 0.296,-0.435C0.267,-0.435 0.242,-0.428 0.22,-0.413C0.198,-0.398 0.181,-0.378 0.169,-0.353C0.156,-0.328 0.15,-0.299 0.15,-0.267C0.15,-0.236 0.156,-0.207 0.169,-0.182C0.181,-0.157 0.198,-0.137 0.22,-0.122C0.242,-0.107 0.267,-0.1 0.296,-0.1Z" style="fill-rule:nonzero;"/>
                        </g>
                        <g transform="matrix(230.348,0,0,230.348,1221.01,3014)">
                            <path d="M0.282,-0.545C0.31,-0.545 0.336,-0.541 0.359,-0.532C0.382,-0.523 0.403,-0.512 0.42,-0.499C0.436,-0.486 0.45,-0.472 0.46,-0.459C0.469,-0.445 0.474,-0.433 0.474,-0.424L0.448,-0.411L0.448,-0.484C0.448,-0.501 0.454,-0.516 0.465,-0.528C0.476,-0.539 0.491,-0.545 0.508,-0.545C0.525,-0.545 0.54,-0.539 0.551,-0.528C0.562,-0.517 0.568,-0.502 0.568,-0.484L0.568,-0.039C0.568,0.019 0.556,0.066 0.531,0.101C0.505,0.135 0.473,0.161 0.432,0.177C0.391,0.192 0.348,0.2 0.301,0.2C0.288,0.2 0.27,0.198 0.249,0.195C0.228,0.192 0.207,0.188 0.188,0.183C0.169,0.178 0.154,0.174 0.144,0.17C0.124,0.161 0.11,0.151 0.103,0.138C0.095,0.125 0.093,0.111 0.098,0.096C0.104,0.077 0.114,0.064 0.127,0.057C0.14,0.049 0.154,0.049 0.169,0.054C0.176,0.056 0.187,0.06 0.202,0.066C0.217,0.072 0.234,0.078 0.253,0.083C0.271,0.088 0.287,0.09 0.301,0.09C0.351,0.09 0.388,0.08 0.412,0.06C0.436,0.04 0.448,0.012 0.448,-0.023L0.448,-0.11L0.46,-0.101C0.46,-0.092 0.456,-0.082 0.447,-0.07C0.438,-0.057 0.425,-0.045 0.41,-0.033C0.394,-0.021 0.375,-0.011 0.354,-0.003C0.333,0.006 0.31,0.01 0.286,0.01C0.239,0.01 0.196,-0.002 0.158,-0.026C0.12,-0.049 0.09,-0.082 0.068,-0.124C0.046,-0.165 0.035,-0.213 0.035,-0.267C0.035,-0.322 0.046,-0.37 0.068,-0.412C0.09,-0.453 0.12,-0.486 0.157,-0.51C0.194,-0.533 0.236,-0.545 0.282,-0.545ZM0.301,-0.435C0.271,-0.435 0.245,-0.428 0.222,-0.413C0.199,-0.398 0.182,-0.378 0.169,-0.353C0.156,-0.328 0.15,-0.299 0.15,-0.267C0.15,-0.236 0.156,-0.207 0.169,-0.182C0.182,-0.157 0.199,-0.137 0.222,-0.122C0.245,-0.107 0.271,-0.1 0.301,-0.1C0.332,-0.1 0.358,-0.107 0.381,-0.122C0.404,-0.137 0.421,-0.157 0.434,-0.182C0.447,-0.207 0.453,-0.236 0.453,-0.267C0.453,-0.299 0.447,-0.328 0.434,-0.353C0.421,-0.378 0.404,-0.398 0.381,-0.413C0.358,-0.428 0.332,-0.435 0.301,-0.435Z" style="fill-rule:nonzero;"/>
                        </g>
                        <g transform="matrix(230.348,0,0,230.348,1366.82,3014)">
                            <path d="M0.125,-0C0.108,-0 0.093,-0.006 0.082,-0.018C0.071,-0.029 0.065,-0.044 0.065,-0.061L0.065,-0.474C0.065,-0.491 0.071,-0.506 0.082,-0.518C0.093,-0.529 0.108,-0.535 0.125,-0.535C0.142,-0.535 0.157,-0.529 0.168,-0.518C0.179,-0.506 0.185,-0.491 0.185,-0.474L0.185,-0.38L0.178,-0.447C0.185,-0.463 0.195,-0.477 0.207,-0.49C0.218,-0.502 0.231,-0.512 0.246,-0.521C0.261,-0.529 0.276,-0.535 0.293,-0.539C0.31,-0.543 0.326,-0.545 0.343,-0.545C0.363,-0.545 0.38,-0.539 0.394,-0.528C0.407,-0.517 0.414,-0.503 0.414,-0.488C0.414,-0.466 0.408,-0.45 0.397,-0.441C0.386,-0.431 0.373,-0.426 0.36,-0.426C0.347,-0.426 0.336,-0.428 0.326,-0.433C0.315,-0.438 0.303,-0.44 0.29,-0.44C0.278,-0.44 0.266,-0.437 0.254,-0.432C0.241,-0.426 0.23,-0.417 0.22,-0.405C0.209,-0.393 0.201,-0.378 0.195,-0.361C0.188,-0.343 0.185,-0.322 0.185,-0.298L0.185,-0.061C0.185,-0.044 0.179,-0.029 0.168,-0.018C0.157,-0.006 0.142,-0 0.125,-0Z" style="fill-rule:nonzero;"/>
                        </g>
                        <g transform="matrix(230.348,0,0,230.348,1461.72,3014)">
                            <path d="M0.312,0.01C0.255,0.01 0.206,-0.002 0.165,-0.026C0.123,-0.049 0.091,-0.081 0.069,-0.122C0.046,-0.163 0.035,-0.209 0.035,-0.26C0.035,-0.32 0.047,-0.371 0.072,-0.414C0.096,-0.456 0.128,-0.488 0.167,-0.511C0.206,-0.534 0.248,-0.545 0.292,-0.545C0.326,-0.545 0.358,-0.538 0.389,-0.524C0.419,-0.51 0.446,-0.491 0.469,-0.467C0.492,-0.442 0.511,-0.414 0.525,-0.382C0.538,-0.35 0.545,-0.316 0.545,-0.28C0.544,-0.264 0.538,-0.251 0.526,-0.241C0.514,-0.231 0.5,-0.226 0.484,-0.226L0.102,-0.226L0.072,-0.326L0.439,-0.326L0.417,-0.306L0.417,-0.333C0.416,-0.352 0.409,-0.37 0.397,-0.385C0.384,-0.4 0.369,-0.413 0.351,-0.422C0.332,-0.431 0.313,-0.435 0.292,-0.435C0.272,-0.435 0.253,-0.432 0.236,-0.427C0.219,-0.422 0.204,-0.413 0.191,-0.4C0.178,-0.387 0.168,-0.37 0.161,-0.349C0.154,-0.328 0.15,-0.301 0.15,-0.268C0.15,-0.232 0.158,-0.202 0.173,-0.177C0.188,-0.152 0.207,-0.133 0.231,-0.12C0.254,-0.107 0.279,-0.1 0.306,-0.1C0.331,-0.1 0.35,-0.102 0.365,-0.106C0.38,-0.11 0.392,-0.115 0.401,-0.121C0.41,-0.126 0.418,-0.131 0.425,-0.135C0.437,-0.141 0.448,-0.144 0.459,-0.144C0.474,-0.144 0.486,-0.139 0.496,-0.129C0.505,-0.119 0.51,-0.107 0.51,-0.094C0.51,-0.076 0.501,-0.06 0.482,-0.045C0.465,-0.03 0.44,-0.017 0.409,-0.007C0.378,0.005 0.345,0.01 0.312,0.01Z" style="fill-rule:nonzero;"/>
                        </g>
                        <g transform="matrix(230.348,0,0,230.348,1595.33,3014)">
                            <path d="M0.312,0.01C0.255,0.01 0.206,-0.002 0.165,-0.026C0.123,-0.049 0.091,-0.081 0.069,-0.122C0.046,-0.163 0.035,-0.209 0.035,-0.26C0.035,-0.32 0.047,-0.371 0.072,-0.414C0.096,-0.456 0.128,-0.488 0.167,-0.511C0.206,-0.534 0.248,-0.545 0.292,-0.545C0.326,-0.545 0.358,-0.538 0.389,-0.524C0.419,-0.51 0.446,-0.491 0.469,-0.467C0.492,-0.442 0.511,-0.414 0.525,-0.382C0.538,-0.35 0.545,-0.316 0.545,-0.28C0.544,-0.264 0.538,-0.251 0.526,-0.241C0.514,-0.231 0.5,-0.226 0.484,-0.226L0.102,-0.226L0.072,-0.326L0.439,-0.326L0.417,-0.306L0.417,-0.333C0.416,-0.352 0.409,-0.37 0.397,-0.385C0.384,-0.4 0.369,-0.413 0.351,-0.422C0.332,-0.431 0.313,-0.435 0.292,-0.435C0.272,-0.435 0.253,-0.432 0.236,-0.427C0.219,-0.422 0.204,-0.413 0.191,-0.4C0.178,-0.387 0.168,-0.37 0.161,-0.349C0.154,-0.328 0.15,-0.301 0.15,-0.268C0.15,-0.232 0.158,-0.202 0.173,-0.177C0.188,-0.152 0.207,-0.133 0.231,-0.12C0.254,-0.107 0.279,-0.1 0.306,-0.1C0.331,-0.1 0.35,-0.102 0.365,-0.106C0.38,-0.11 0.392,-0.115 0.401,-0.121C0.41,-0.126 0.418,-0.131 0.425,-0.135C0.437,-0.141 0.448,-0.144 0.459,-0.144C0.474,-0.144 0.486,-0.139 0.496,-0.129C0.505,-0.119 0.51,-0.107 0.51,-0.094C0.51,-0.076 0.501,-0.06 0.482,-0.045C0.465,-0.03 0.44,-0.017 0.409,-0.007C0.378,0.005 0.345,0.01 0.312,0.01Z" style="fill-rule:nonzero;"/>
                        </g>
                        <g transform="matrix(230.348,0,0,230.348,1728.93,3014)">
                            <path d="M0.351,-0.545C0.4,-0.545 0.438,-0.535 0.464,-0.514C0.489,-0.493 0.507,-0.466 0.517,-0.432C0.526,-0.397 0.531,-0.359 0.531,-0.317L0.531,-0.061C0.531,-0.044 0.525,-0.029 0.514,-0.018C0.503,-0.006 0.488,-0 0.471,-0C0.454,-0 0.439,-0.006 0.428,-0.018C0.417,-0.029 0.411,-0.044 0.411,-0.061L0.411,-0.317C0.411,-0.339 0.408,-0.359 0.403,-0.377C0.397,-0.394 0.387,-0.408 0.372,-0.419C0.357,-0.43 0.336,-0.435 0.309,-0.435C0.282,-0.435 0.26,-0.43 0.242,-0.419C0.223,-0.408 0.209,-0.394 0.2,-0.377C0.19,-0.359 0.185,-0.339 0.185,-0.317L0.185,-0.061C0.185,-0.044 0.179,-0.029 0.168,-0.018C0.157,-0.006 0.142,-0 0.125,-0C0.108,-0 0.093,-0.006 0.082,-0.018C0.071,-0.029 0.065,-0.044 0.065,-0.061L0.065,-0.474C0.065,-0.491 0.071,-0.506 0.082,-0.518C0.093,-0.529 0.108,-0.535 0.125,-0.535C0.142,-0.535 0.157,-0.529 0.168,-0.518C0.179,-0.506 0.185,-0.491 0.185,-0.474L0.185,-0.431L0.17,-0.434C0.176,-0.445 0.185,-0.458 0.196,-0.471C0.207,-0.484 0.221,-0.496 0.236,-0.507C0.251,-0.518 0.269,-0.528 0.288,-0.535C0.307,-0.542 0.328,-0.545 0.351,-0.545Z" style="fill-rule:nonzero;"/>
                        </g>
                        <g transform="matrix(230.348,0,0,230.348,1866.22,3014)">
                            <path d="M0.342,-0.545C0.389,-0.545 0.431,-0.533 0.468,-0.51C0.505,-0.486 0.534,-0.453 0.556,-0.412C0.577,-0.371 0.588,-0.323 0.588,-0.268C0.588,-0.213 0.577,-0.165 0.556,-0.124C0.534,-0.082 0.505,-0.049 0.469,-0.026C0.432,-0.002 0.391,0.01 0.346,0.01C0.319,0.01 0.294,0.006 0.271,-0.003C0.248,-0.012 0.227,-0.023 0.21,-0.036C0.192,-0.049 0.178,-0.063 0.169,-0.077C0.159,-0.09 0.154,-0.102 0.154,-0.111L0.185,-0.124L0.185,-0.051C0.185,-0.034 0.179,-0.019 0.168,-0.008C0.157,0.004 0.142,0.01 0.125,0.01C0.108,0.01 0.093,0.004 0.082,-0.007C0.071,-0.018 0.065,-0.033 0.065,-0.051L0.065,-0.679C0.065,-0.696 0.071,-0.711 0.082,-0.723C0.093,-0.734 0.108,-0.74 0.125,-0.74C0.142,-0.74 0.157,-0.734 0.168,-0.723C0.179,-0.711 0.185,-0.696 0.185,-0.679L0.185,-0.425L0.168,-0.434C0.168,-0.443 0.173,-0.453 0.182,-0.466C0.191,-0.478 0.204,-0.49 0.22,-0.503C0.236,-0.515 0.255,-0.525 0.276,-0.533C0.297,-0.541 0.319,-0.545 0.342,-0.545ZM0.327,-0.435C0.298,-0.435 0.272,-0.428 0.25,-0.413C0.228,-0.398 0.211,-0.379 0.199,-0.354C0.186,-0.329 0.18,-0.3 0.18,-0.268C0.18,-0.237 0.186,-0.208 0.199,-0.183C0.211,-0.157 0.228,-0.137 0.25,-0.122C0.272,-0.107 0.298,-0.1 0.327,-0.1C0.356,-0.1 0.382,-0.107 0.404,-0.122C0.425,-0.137 0.442,-0.157 0.455,-0.183C0.467,-0.208 0.473,-0.237 0.473,-0.268C0.473,-0.3 0.467,-0.329 0.455,-0.354C0.442,-0.379 0.425,-0.398 0.404,-0.413C0.382,-0.428 0.356,-0.435 0.327,-0.435Z" style="fill-rule:nonzero;"/>
                        </g>
                        <g transform="matrix(230.348,0,0,230.348,2009.72,3014)">
                            <path d="M0.178,-0.061C0.178,-0.044 0.172,-0.029 0.161,-0.018C0.15,-0.006 0.135,-0 0.118,-0C0.101,-0 0.086,-0.006 0.075,-0.018C0.064,-0.029 0.058,-0.044 0.058,-0.061L0.058,-0.474C0.058,-0.491 0.064,-0.506 0.075,-0.518C0.086,-0.529 0.101,-0.535 0.118,-0.535C0.135,-0.535 0.15,-0.529 0.161,-0.518C0.172,-0.506 0.178,-0.491 0.178,-0.474L0.178,-0.061ZM0.117,-0.6C0.094,-0.6 0.078,-0.604 0.069,-0.611C0.06,-0.618 0.055,-0.631 0.055,-0.65L0.055,-0.669C0.055,-0.688 0.06,-0.702 0.071,-0.709C0.081,-0.716 0.097,-0.719 0.118,-0.719C0.141,-0.719 0.158,-0.715 0.167,-0.708C0.176,-0.701 0.181,-0.688 0.181,-0.669L0.181,-0.65C0.181,-0.631 0.176,-0.618 0.166,-0.611C0.156,-0.604 0.14,-0.6 0.117,-0.6Z" style="fill-rule:nonzero;"/>
                        </g>
                        <g transform="matrix(230.348,0,0,230.348,2064.08,3014)">
                            <path d="M0.125,-0C0.108,-0 0.093,-0.006 0.082,-0.018C0.071,-0.029 0.065,-0.044 0.065,-0.061L0.065,-0.474C0.065,-0.491 0.071,-0.506 0.082,-0.518C0.093,-0.529 0.108,-0.535 0.125,-0.535C0.142,-0.535 0.157,-0.529 0.168,-0.518C0.179,-0.506 0.185,-0.491 0.185,-0.474L0.185,-0.38L0.178,-0.447C0.185,-0.463 0.195,-0.477 0.207,-0.49C0.218,-0.502 0.231,-0.512 0.246,-0.521C0.261,-0.529 0.276,-0.535 0.293,-0.539C0.31,-0.543 0.326,-0.545 0.343,-0.545C0.363,-0.545 0.38,-0.539 0.394,-0.528C0.407,-0.517 0.414,-0.503 0.414,-0.488C0.414,-0.466 0.408,-0.45 0.397,-0.441C0.386,-0.431 0.373,-0.426 0.36,-0.426C0.347,-0.426 0.336,-0.428 0.326,-0.433C0.315,-0.438 0.303,-0.44 0.29,-0.44C0.278,-0.44 0.266,-0.437 0.254,-0.432C0.241,-0.426 0.23,-0.417 0.22,-0.405C0.209,-0.393 0.201,-0.378 0.195,-0.361C0.188,-0.343 0.185,-0.322 0.185,-0.298L0.185,-0.061C0.185,-0.044 0.179,-0.029 0.168,-0.018C0.157,-0.006 0.142,-0 0.125,-0Z" style="fill-rule:nonzero;"/>
                        </g>
                        <g transform="matrix(230.348,0,0,230.348,2158.99,3014)">
                            <path d="M0.498,-0.74C0.515,-0.74 0.53,-0.734 0.541,-0.723C0.552,-0.712 0.558,-0.697 0.558,-0.679L0.558,-0.061C0.558,-0.044 0.552,-0.029 0.541,-0.018C0.53,-0.006 0.515,-0 0.498,-0C0.481,-0 0.466,-0.006 0.455,-0.018C0.444,-0.029 0.438,-0.044 0.438,-0.061L0.438,-0.11L0.46,-0.101C0.46,-0.092 0.455,-0.082 0.446,-0.07C0.437,-0.057 0.424,-0.045 0.408,-0.033C0.392,-0.021 0.373,-0.011 0.352,-0.003C0.33,0.006 0.306,0.01 0.281,0.01C0.235,0.01 0.193,-0.002 0.156,-0.026C0.119,-0.049 0.089,-0.082 0.068,-0.124C0.046,-0.165 0.035,-0.213 0.035,-0.267C0.035,-0.322 0.046,-0.37 0.068,-0.412C0.089,-0.453 0.118,-0.486 0.155,-0.51C0.192,-0.533 0.232,-0.545 0.277,-0.545C0.306,-0.545 0.332,-0.541 0.356,-0.532C0.38,-0.523 0.401,-0.512 0.419,-0.499C0.436,-0.486 0.45,-0.472 0.46,-0.459C0.469,-0.445 0.474,-0.433 0.474,-0.424L0.438,-0.411L0.438,-0.679C0.438,-0.696 0.444,-0.711 0.455,-0.723C0.466,-0.734 0.481,-0.74 0.498,-0.74ZM0.296,-0.1C0.325,-0.1 0.351,-0.107 0.373,-0.122C0.395,-0.137 0.412,-0.157 0.425,-0.182C0.437,-0.207 0.443,-0.236 0.443,-0.267C0.443,-0.299 0.437,-0.328 0.425,-0.353C0.412,-0.378 0.395,-0.398 0.373,-0.413C0.351,-0.428 0.325,-0.435 0.296,-0.435C0.267,-0.435 0.242,-0.428 0.22,-0.413C0.198,-0.398 0.181,-0.378 0.169,-0.353C0.156,-0.328 0.15,-0.299 0.15,-0.267C0.15,-0.236 0.156,-0.207 0.169,-0.182C0.181,-0.157 0.198,-0.137 0.22,-0.122C0.242,-0.107 0.267,-0.1 0.296,-0.1Z" style="fill-rule:nonzero;"/>
                        </g>
                    </g>
                    <g transform="matrix(0.445709,0,0,0.52961,-1294.15,1820.9)">
                        <path d="M7154,3391.6L7154,3588.4C7154,3624.61 7119.07,3654 7076.05,3654L5915.95,3654C5872.93,3654 5838,3624.61 5838,3588.4L5838,3391.6C5838,3355.39 5872.93,3326 5915.95,3326L7076.05,3326C7119.07,3326 7154,3355.39 7154,3391.6ZM6779.05,3406.64C6787.92,3406.64 6794.32,3405.49 6798.23,3403.18C6802.15,3400.87 6804.11,3396.54 6804.11,3390.17L6804.11,3383.91C6804.11,3377.76 6802.28,3373.47 6798.62,3371.06C6794.97,3368.64 6788.58,3367.43 6779.44,3367.43C6771.09,3367.43 6764.89,3368.59 6760.84,3370.89C6756.8,3373.2 6754.78,3377.54 6754.78,3383.91L6754.78,3390.17C6754.78,3396.32 6756.6,3400.6 6760.26,3403.01C6763.91,3405.43 6770.18,3406.64 6779.05,3406.64ZM6099.68,3460.96C6096.06,3451.7 6090.49,3443.86 6082.96,3437.45C6073.05,3428.99 6057.65,3424.76 6036.77,3424.76C6028.15,3424.76 6020.19,3425.91 6012.89,3428.22C6005.58,3430.53 5998.92,3433.55 5992.92,3437.28C5986.92,3441.01 5981.83,3445.02 5977.65,3449.31C5976.24,3450.75 5974.94,3452.17 5973.74,3453.55L5973.74,3448.15C5973.74,3442.44 5971.52,3437.66 5967.08,3433.82C5962.64,3429.98 5957.03,3428.06 5950.25,3428.06C5943.46,3428.06 5937.85,3429.98 5933.41,3433.82C5928.98,3437.66 5926.76,3442.44 5926.76,3448.15L5926.76,3584.23C5926.76,3589.94 5928.98,3594.72 5933.41,3598.56C5937.85,3602.4 5943.46,3604.33 5950.25,3604.33C5957.03,3604.33 5962.64,3602.4 5967.08,3598.56C5971.52,3594.72 5973.74,3589.94 5973.74,3584.23L5973.74,3499.88C5973.74,3492.63 5975.5,3486.1 5979.02,3480.28C5982.55,3474.46 5987.83,3469.79 5994.88,3466.28C6001.92,3462.76 6010.41,3461 6020.32,3461C6030.5,3461 6038.33,3462.76 6043.81,3466.28C6049.3,3469.79 6053.08,3474.46 6055.17,3480.28C6057.26,3486.1 6058.3,3492.63 6058.3,3499.88L6058.3,3584.23C6058.3,3589.94 6060.52,3594.72 6064.95,3598.56C6069.39,3602.4 6075,3604.33 6081.79,3604.33C6088.58,3604.33 6094.19,3602.4 6098.62,3598.56C6103.06,3594.72 6105.28,3589.94 6105.28,3584.23L6105.28,3499.88C6105.28,3492.63 6107.04,3486.1 6110.57,3480.28C6114.09,3474.46 6119.37,3469.79 6126.42,3466.28C6133.47,3462.76 6141.95,3461 6151.87,3461C6162.05,3461 6169.88,3462.76 6175.36,3466.28C6180.84,3469.79 6184.62,3474.46 6186.71,3480.28C6188.8,3486.1 6189.84,3492.63 6189.84,3499.88L6189.84,3584.23C6189.84,3589.94 6192.06,3594.72 6196.5,3598.56C6200.94,3602.4 6206.55,3604.33 6213.33,3604.33C6220.12,3604.33 6225.73,3602.4 6230.17,3598.56C6234.61,3594.72 6236.82,3589.94 6236.82,3584.23L6236.82,3499.88C6236.82,3486.04 6235,3473.47 6231.34,3462.16C6227.69,3450.85 6220.97,3441.78 6211.18,3434.97C6201.39,3428.17 6187.1,3424.76 6168.31,3424.76C6156.83,3424.76 6146.45,3426.79 6137.19,3430.86C6127.92,3434.92 6120.03,3439.86 6113.5,3445.68C6107.42,3451.11 6102.81,3456.2 6099.68,3460.96ZM6322.51,3529.86L6451.76,3529.86C6458.02,3529.86 6463.5,3528.22 6468.2,3524.92C6472.9,3521.63 6475.38,3517.34 6475.64,3512.07C6475.64,3500.21 6472.96,3489.01 6467.61,3478.47C6462.26,3467.92 6455.02,3458.64 6445.88,3450.62C6436.75,3442.61 6426.24,3436.29 6414.37,3431.68C6402.49,3427.07 6389.9,3424.76 6376.59,3424.76C6359.36,3424.76 6343.05,3428.49 6327.65,3435.96C6312.25,3443.43 6299.79,3454.14 6290.26,3468.09C6280.74,3482.03 6275.97,3498.89 6275.97,3518.66C6275.97,3535.58 6280.35,3550.73 6289.09,3564.13C6297.83,3577.53 6310.36,3588.13 6326.67,3595.92C6342.99,3603.72 6362.23,3607.62 6384.42,3607.62C6397.47,3607.62 6410.13,3605.81 6422.39,3602.18C6434.66,3598.56 6444.19,3594.33 6450.97,3589.5C6458.28,3584.67 6461.94,3579.29 6461.94,3573.36C6461.94,3568.96 6460.04,3565.12 6456.26,3561.82C6452.47,3558.53 6447.71,3556.88 6441.97,3556.88C6437.79,3556.88 6433.36,3557.87 6428.66,3559.85C6425.79,3561.16 6422.59,3562.76 6419.07,3564.62C6415.54,3566.49 6410.91,3568.08 6405.17,3569.4C6399.43,3570.72 6391.73,3571.38 6382.07,3571.38C6371.63,3571.38 6361.78,3569.24 6352.51,3564.95C6343.25,3560.67 6335.68,3554.41 6329.8,3546.17C6326.37,3541.36 6323.94,3535.92 6322.51,3529.86ZM6322.93,3496.92C6323.56,3494.19 6324.35,3491.66 6325.3,3489.34C6328.17,3482.31 6332.09,3476.71 6337.05,3472.53C6342.01,3468.36 6347.88,3465.4 6354.66,3463.64C6361.45,3461.88 6368.76,3461 6376.59,3461C6384.68,3461 6392.31,3462.49 6399.49,3465.45C6406.67,3468.42 6412.67,3472.43 6417.5,3477.48C6422.33,3482.53 6425,3488.24 6425.53,3494.61L6425.53,3496.92L6322.93,3496.92ZM6660.82,3584.6C6660.91,3590.15 6663.13,3594.8 6667.47,3598.56C6671.91,3602.4 6677.52,3604.33 6684.31,3604.33C6691.09,3604.33 6696.7,3602.4 6701.14,3598.56C6705.58,3594.72 6707.8,3589.94 6707.8,3584.23L6707.8,3380.61C6707.8,3374.68 6705.58,3369.85 6701.14,3366.11C6696.7,3362.38 6691.09,3360.51 6684.31,3360.51C6677.52,3360.51 6671.91,3362.43 6667.47,3366.28C6663.03,3370.12 6660.82,3374.9 6660.82,3380.61L6660.82,3445.28C6658.53,3443.49 6655.98,3441.7 6653.18,3439.92C6646.27,3435.52 6638.11,3431.9 6628.71,3429.04C6619.32,3426.19 6609.01,3424.76 6597.78,3424.76C6580.3,3424.76 6564.38,3428.66 6550.02,3436.46C6535.67,3444.26 6524.25,3455.02 6515.77,3468.75C6507.28,3482.47 6503.04,3498.34 6503.04,3516.36C6503.04,3534.15 6507.28,3549.91 6515.77,3563.64C6524.25,3577.36 6535.8,3588.13 6550.41,3595.92C6565.03,3603.72 6581.34,3607.62 6599.35,3607.62C6609.27,3607.62 6618.47,3606.25 6626.95,3603.5C6635.43,3600.76 6642.81,3597.41 6649.07,3593.45C6653.7,3590.53 6657.62,3587.58 6660.82,3584.6ZM6605.22,3571.38C6594,3571.38 6584.08,3568.96 6575.47,3564.13C6566.86,3559.3 6560.14,3552.71 6555.31,3544.36C6550.48,3536.01 6548.07,3526.68 6548.07,3516.36C6548.07,3505.81 6550.48,3496.37 6555.31,3488.02C6560.14,3479.67 6566.86,3473.08 6575.47,3468.25C6584.08,3463.42 6594,3461 6605.22,3461C6616.71,3461 6626.76,3463.42 6635.37,3468.25C6643.98,3473.08 6650.7,3479.67 6655.53,3488.02C6660.36,3496.37 6662.77,3505.81 6662.77,3516.36C6662.77,3526.68 6660.36,3536.01 6655.53,3544.36C6650.7,3552.71 6643.98,3559.3 6635.37,3564.13C6626.76,3568.96 6616.71,3571.38 6605.22,3571.38ZM6997.12,3584.6C6997.21,3590.15 6999.43,3594.8 7003.77,3598.56C7008.21,3602.4 7013.82,3604.33 7020.6,3604.33C7027.39,3604.33 7033,3602.4 7037.44,3598.56C7041.88,3594.72 7044.09,3589.94 7044.09,3584.23L7044.09,3444.86C7044.09,3438.93 7041.88,3434.1 7037.44,3430.36C7033,3426.63 7027.39,3424.76 7020.6,3424.76C7013.82,3424.76 7008.21,3426.68 7003.77,3430.53C6999.33,3434.37 6997.11,3439.15 6997.11,3444.86L6997.11,3445.28C6994.83,3443.49 6992.28,3441.7 6989.48,3439.92C6982.56,3435.52 6974.41,3431.9 6965.01,3429.04C6955.61,3426.19 6945.31,3424.76 6934.08,3424.76C6916.6,3424.76 6900.68,3428.66 6886.32,3436.46C6871.97,3444.26 6860.55,3455.02 6852.06,3468.75C6843.58,3482.47 6839.34,3498.34 6839.34,3516.36C6839.34,3534.15 6843.58,3549.91 6852.06,3563.64C6860.55,3577.36 6872.1,3588.13 6886.71,3595.92C6901.33,3603.72 6917.64,3607.62 6935.65,3607.62C6945.57,3607.62 6954.77,3606.25 6963.25,3603.5C6971.73,3600.76 6979.11,3597.41 6985.37,3593.45C6990,3590.53 6993.91,3587.58 6997.12,3584.6ZM6941.52,3571.38C6930.3,3571.38 6920.38,3568.96 6911.77,3564.13C6903.15,3559.3 6896.43,3552.71 6891.61,3544.36C6886.78,3536.01 6884.36,3526.68 6884.36,3516.36C6884.36,3505.81 6886.78,3496.37 6891.61,3488.02C6896.43,3479.67 6903.15,3473.08 6911.77,3468.25C6920.38,3463.42 6930.3,3461 6941.52,3461C6953.01,3461 6963.05,3463.42 6971.67,3468.25C6980.28,3473.08 6987,3479.67 6991.83,3488.02C6996.66,3496.37 6999.07,3505.81 6999.07,3516.36C6999.07,3526.68 6996.66,3536.01 6991.83,3544.36C6987,3552.71 6980.28,3559.3 6971.67,3564.13C6963.05,3568.96 6953.01,3571.38 6941.52,3571.38ZM6802.93,3584.23L6802.93,3448.15C6802.93,3442.44 6800.71,3437.66 6796.28,3433.82C6791.84,3429.98 6786.23,3428.06 6779.44,3428.06C6772.65,3428.06 6767.04,3429.98 6762.61,3433.82C6758.17,3437.66 6755.95,3442.44 6755.95,3448.15L6755.95,3584.23C6755.95,3589.94 6758.17,3594.72 6762.61,3598.56C6767.04,3602.4 6772.65,3604.33 6779.44,3604.33C6786.23,3604.33 6791.84,3602.4 6796.28,3598.56C6800.71,3594.72 6802.93,3589.94 6802.93,3584.23Z"/>
                    </g>
                </g>
            </g>
        </g>
    </g>
</svg>
