<?xml version="1.0" encoding="UTF-8" standalone="no"?>
<!DOCTYPE svg PUBLIC "-//W3C//DTD SVG 1.1//EN" "http://www.w3.org/Graphics/SVG/1.1/DTD/svg11.dtd">
<svg width="100%" height="100%" viewBox="0 0 3634 1030" version="1.1" xmlns="http://www.w3.org/2000/svg" xmlns:xlink="http://www.w3.org/1999/xlink" xml:space="preserve" xmlns:serif="http://www.serif.com/" style="fill-rule:evenodd;clip-rule:evenodd;stroke-linejoin:round;stroke-miterlimit:10;">
    <g transform="matrix(1,0,0,1,0,-1624.16)">
        <g id="Artboard1" transform="matrix(2.86142,0,0,0.810777,1659.62,1624.16)">
            <rect x="-580" y="0" width="1270" height="1270" style="fill:none;"/>
            <g transform="matrix(0.279622,0,0,0.986849,-480.971,-1228.72)">
                <g transform="matrix(0.266584,0,0,0.266584,305.826,1888.55)">
                    <g transform="matrix(1,0,0,1,-2083.33,-2083.33)">
                        <clipPath id="_clip1">
                            <rect x="0" y="0" width="4166.67" height="4166.67"/>
                        </clipPath>
                        <g clip-path="url(#_clip1)">
                            <g id="redgreenbird-icon-full-size" serif:id="redgreenbird icon full size" transform="matrix(4.16667,0,0,4.16667,-4444.46,0)">
                                <g>
                                    <rect x="1066.67" y="0" width="1000" height="1000" style="fill:none;"/>
                                    <g id="Bird" transform="matrix(1.4281,0,0,1.4281,840.886,-35.4507)">
                                        <g id="Body" transform="matrix(-1,1.19894e-16,1.22465e-16,0.979009,262.88,669.274)">
                                            <path d="M0,-336.924C26.429,-310.978 38.371,-303.393 57.856,-271.646C57.8,-286.528 66.739,-375.986 29.226,-416.052C5.22,-422.438 -193.238,-448.499 -316.197,-247.964C-312.725,-232.622 -303.235,-89.01 -419.38,3.223C-414.341,6.19 -305.932,73.01 -185.946,38.195C-192.969,15.541 -203.674,-5.501 -217.348,-24.236C-203.819,-17.281 -191.087,-8.984 -179.34,0.479C-183.696,-27.203 -194.614,-52.725 -210.46,-74.416C-172.464,-54.887 -142.272,-22.332 -125.788,17.355C-95.81,3.458 -68.373,-15.009 -44.364,-37.137C-49.84,-99.692 -73.278,-157.096 -109.506,-204.141C-116.144,-211.685 -130.431,-231.668 -138.658,-242.25C-141.019,-245.287 -142.882,-247.55 -143.92,-248.521C-110.794,-233.693 -41.357,-186.831 15.515,-111.909C22.984,-124.832 29.568,-138.326 35.18,-152.324C35.201,-154.173 29.811,-276.418 0,-336.924Z" style="fill:rgb(0,204,51);fill-rule:nonzero;stroke:black;stroke-width:10px;"/>
                                        </g>
                                        <g id="Head" transform="matrix(1,0,0,1,-143.03,-107.657)">
                                            <g id="Face" transform="matrix(0.75,0,0,0.75,-2886.41,-3456)">
                                                <path d="M4415.53,4912.63C4452.44,4857.71 4657.29,4705.82 4997.44,4870.66C4997.44,4870.66 4897.78,4864.74 4859.91,4894.42C4869.1,4904.39 4969.1,4993.98 4940.49,5137.06C4793.71,5183.18 4791.72,5288.47 4791.72,5288.47C4622.33,5065.31 4379.86,5095.94 4379.86,5095.94C4387.44,5081.23 4410.54,5015.07 4470.22,4978.25L4377.69,5006.86C4377.69,5006.86 4397.61,4943.42 4461.35,4911.77C4432.93,4911.94 4415.53,4912.63 4415.53,4912.63Z" style="fill:rgb(255,0,0);stroke:black;stroke-width:13.33px;stroke-linecap:round;"/>
                                            </g>
                                            <g id="Eye">
                                                <g id="Sklera" transform="matrix(0.360928,0.0336799,-0.0433364,0.464411,-592.843,-2112.37)">
                                                    <path d="M3965.21,4854C3988.47,4804.69 4038.65,4770.53 4096.75,4770.53C4154.86,4770.53 4205.04,4804.69 4228.3,4854C4205.04,4903.3 4165.22,4914.82 4107.11,4914.82C4049.01,4914.82 3988.47,4903.3 3965.21,4854Z" style="fill:white;stroke:black;stroke-width:23.94px;stroke-linecap:round;"/>
                                                </g>
                                                <g id="Iris" transform="matrix(0.75,0,0,0.75,-2886.41,-3456)">
                                                    <path d="M4778.54,4937.8C4794.59,4947.72 4806.74,4965.48 4812.44,4987.04C4809.53,4993.16 4806.1,4998.82 4802.23,5003.93C4796.02,5008.7 4788.23,5011.55 4779.79,5011.55C4759.43,5011.55 4742.91,4995.02 4742.91,4974.66C4742.91,4954.72 4758.76,4938.46 4778.54,4937.8Z" style="stroke:black;stroke-width:13.33px;stroke-linecap:round;"/>
                                                </g>
                                            </g>
                                            <g id="Mouth" transform="matrix(0.505391,-0.132082,-0.115048,0.774658,-5677.73,-16813.6)">
                                                <path d="M18528.7,25336.4C18528.7,25336.4 18593.6,25372.1 18635.2,25355.7" style="fill:none;stroke:black;stroke-width:18.7px;stroke-linecap:round;"/>
                                            </g>
                                        </g>
                                        <g id="Beak" transform="matrix(-1,9.13517e-17,1.37027e-16,1,657.103,274.825)">
                                            <path d="M27.517,-151.875C-37.192,-72.554 -19.834,6.459 -19.8,6.591C-86.109,-24.671 -141.338,-13.855 -155.192,0C-152.816,-11.702 -149.396,-22.426 -145.155,-32.264C-111.409,-110.465 1.878,-142.476 27.517,-151.875Z" style="fill:rgb(255,204,102);fill-rule:nonzero;stroke:black;stroke-width:10px;"/>
                                        </g>
                                    </g>
                                </g>
                            </g>
                        </g>
                    </g>
                </g>
                <g transform="matrix(2.38648,0,0,2.38648,-990.786,-6631.61)">
                    <g transform="matrix(0.881439,0,0,0.881439,63.6968,895.066)">
                        <g transform="matrix(230.348,0,0,230.348,849,3014)">
                            <path d="M0.125,-0C0.108,-0 0.093,-0.006 0.082,-0.018C0.071,-0.029 0.065,-0.044 0.065,-0.061L0.065,-0.474C0.065,-0.491 0.071,-0.506 0.082,-0.518C0.093,-0.529 0.108,-0.535 0.125,-0.535C0.142,-0.535 0.157,-0.529 0.168,-0.518C0.179,-0.506 0.185,-0.491 0.185,-0.474L0.185,-0.38L0.178,-0.447C0.185,-0.463 0.195,-0.477 0.207,-0.49C0.218,-0.502 0.231,-0.512 0.246,-0.521C0.261,-0.529 0.276,-0.535 0.293,-0.539C0.31,-0.543 0.326,-0.545 0.343,-0.545C0.363,-0.545 0.38,-0.539 0.394,-0.528C0.407,-0.517 0.414,-0.503 0.414,-0.488C0.414,-0.466 0.408,-0.45 0.397,-0.441C0.386,-0.431 0.373,-0.426 0.36,-0.426C0.347,-0.426 0.336,-0.428 0.326,-0.433C0.315,-0.438 0.303,-0.44 0.29,-0.44C0.278,-0.44 0.266,-0.437 0.254,-0.432C0.241,-0.426 0.23,-0.417 0.22,-0.405C0.209,-0.393 0.201,-0.378 0.195,-0.361C0.188,-0.343 0.185,-0.322 0.185,-0.298L0.185,-0.061C0.185,-0.044 0.179,-0.029 0.168,-0.018C0.157,-0.006 0.142,-0 0.125,-0Z" style="fill:white;fill-rule:nonzero;"/>
                        </g>
                        <g transform="matrix(230.348,0,0,230.348,943.903,3014)">
                            <path d="M0.312,0.01C0.255,0.01 0.206,-0.002 0.165,-0.026C0.123,-0.049 0.091,-0.081 0.069,-0.122C0.046,-0.163 0.035,-0.209 0.035,-0.26C0.035,-0.32 0.047,-0.371 0.072,-0.414C0.096,-0.456 0.128,-0.488 0.167,-0.511C0.206,-0.534 0.248,-0.545 0.292,-0.545C0.326,-0.545 0.358,-0.538 0.389,-0.524C0.419,-0.51 0.446,-0.491 0.469,-0.467C0.492,-0.442 0.511,-0.414 0.525,-0.382C0.538,-0.35 0.545,-0.316 0.545,-0.28C0.544,-0.264 0.538,-0.251 0.526,-0.241C0.514,-0.231 0.5,-0.226 0.484,-0.226L0.102,-0.226L0.072,-0.326L0.439,-0.326L0.417,-0.306L0.417,-0.333C0.416,-0.352 0.409,-0.37 0.397,-0.385C0.384,-0.4 0.369,-0.413 0.351,-0.422C0.332,-0.431 0.313,-0.435 0.292,-0.435C0.272,-0.435 0.253,-0.432 0.236,-0.427C0.219,-0.422 0.204,-0.413 0.191,-0.4C0.178,-0.387 0.168,-0.37 0.161,-0.349C0.154,-0.328 0.15,-0.301 0.15,-0.268C0.15,-0.232 0.158,-0.202 0.173,-0.177C0.188,-0.152 0.207,-0.133 0.231,-0.12C0.254,-0.107 0.279,-0.1 0.306,-0.1C0.331,-0.1 0.35,-0.102 0.365,-0.106C0.38,-0.11 0.392,-0.115 0.401,-0.121C0.41,-0.126 0.418,-0.131 0.425,-0.135C0.437,-0.141 0.448,-0.144 0.459,-0.144C0.474,-0.144 0.486,-0.139 0.496,-0.129C0.505,-0.119 0.51,-0.107 0.51,-0.094C0.51,-0.076 0.501,-0.06 0.482,-0.045C0.465,-0.03 0.44,-0.017 0.409,-0.007C0.378,0.005 0.345,0.01 0.312,0.01Z" style="fill:white;fill-rule:nonzero;"/>
                        </g>
                        <g transform="matrix(230.348,0,0,230.348,1077.5,3014)">
                            <path d="M0.498,-0.74C0.515,-0.74 0.53,-0.734 0.541,-0.723C0.552,-0.712 0.558,-0.697 0.558,-0.679L0.558,-0.061C0.558,-0.044 0.552,-0.029 0.541,-0.018C0.53,-0.006 0.515,-0 0.498,-0C0.481,-0 0.466,-0.006 0.455,-0.018C0.444,-0.029 0.438,-0.044 0.438,-0.061L0.438,-0.11L0.46,-0.101C0.46,-0.092 0.455,-0.082 0.446,-0.07C0.437,-0.057 0.424,-0.045 0.408,-0.033C0.392,-0.021 0.373,-0.011 0.352,-0.003C0.33,0.006 0.306,0.01 0.281,0.01C0.235,0.01 0.193,-0.002 0.156,-0.026C0.119,-0.049 0.089,-0.082 0.068,-0.124C0.046,-0.165 0.035,-0.213 0.035,-0.267C0.035,-0.322 0.046,-0.37 0.068,-0.412C0.089,-0.453 0.118,-0.486 0.155,-0.51C0.192,-0.533 0.232,-0.545 0.277,-0.545C0.306,-0.545 0.332,-0.541 0.356,-0.532C0.38,-0.523 0.401,-0.512 0.419,-0.499C0.436,-0.486 0.45,-0.472 0.46,-0.459C0.469,-0.445 0.474,-0.433 0.474,-0.424L0.438,-0.411L0.438,-0.679C0.438,-0.696 0.444,-0.711 0.455,-0.723C0.466,-0.734 0.481,-0.74 0.498,-0.74ZM0.296,-0.1C0.325,-0.1 0.351,-0.107 0.373,-0.122C0.395,-0.137 0.412,-0.157 0.425,-0.182C0.437,-0.207 0.443,-0.236 0.443,-0.267C0.443,-0.299 0.437,-0.328 0.425,-0.353C0.412,-0.378 0.395,-0.398 0.373,-0.413C0.351,-0.428 0.325,-0.435 0.296,-0.435C0.267,-0.435 0.242,-0.428 0.22,-0.413C0.198,-0.398 0.181,-0.378 0.169,-0.353C0.156,-0.328 0.15,-0.299 0.15,-0.267C0.15,-0.236 0.156,-0.207 0.169,-0.182C0.181,-0.157 0.198,-0.137 0.22,-0.122C0.242,-0.107 0.267,-0.1 0.296,-0.1Z" style="fill:white;fill-rule:nonzero;"/>
                        </g>
                        <g transform="matrix(230.348,0,0,230.348,1221.01,3014)">
                            <path d="M0.282,-0.545C0.31,-0.545 0.336,-0.541 0.359,-0.532C0.382,-0.523 0.403,-0.512 0.42,-0.499C0.436,-0.486 0.45,-0.472 0.46,-0.459C0.469,-0.445 0.474,-0.433 0.474,-0.424L0.448,-0.411L0.448,-0.484C0.448,-0.501 0.454,-0.516 0.465,-0.528C0.476,-0.539 0.491,-0.545 0.508,-0.545C0.525,-0.545 0.54,-0.539 0.551,-0.528C0.562,-0.517 0.568,-0.502 0.568,-0.484L0.568,-0.039C0.568,0.019 0.556,0.066 0.531,0.101C0.505,0.135 0.473,0.161 0.432,0.177C0.391,0.192 0.348,0.2 0.301,0.2C0.288,0.2 0.27,0.198 0.249,0.195C0.228,0.192 0.207,0.188 0.188,0.183C0.169,0.178 0.154,0.174 0.144,0.17C0.124,0.161 0.11,0.151 0.103,0.138C0.095,0.125 0.093,0.111 0.098,0.096C0.104,0.077 0.114,0.064 0.127,0.057C0.14,0.049 0.154,0.049 0.169,0.054C0.176,0.056 0.187,0.06 0.202,0.066C0.217,0.072 0.234,0.078 0.253,0.083C0.271,0.088 0.287,0.09 0.301,0.09C0.351,0.09 0.388,0.08 0.412,0.06C0.436,0.04 0.448,0.012 0.448,-0.023L0.448,-0.11L0.46,-0.101C0.46,-0.092 0.456,-0.082 0.447,-0.07C0.438,-0.057 0.425,-0.045 0.41,-0.033C0.394,-0.021 0.375,-0.011 0.354,-0.003C0.333,0.006 0.31,0.01 0.286,0.01C0.239,0.01 0.196,-0.002 0.158,-0.026C0.12,-0.049 0.09,-0.082 0.068,-0.124C0.046,-0.165 0.035,-0.213 0.035,-0.267C0.035,-0.322 0.046,-0.37 0.068,-0.412C0.09,-0.453 0.12,-0.486 0.157,-0.51C0.194,-0.533 0.236,-0.545 0.282,-0.545ZM0.301,-0.435C0.271,-0.435 0.245,-0.428 0.222,-0.413C0.199,-0.398 0.182,-0.378 0.169,-0.353C0.156,-0.328 0.15,-0.299 0.15,-0.267C0.15,-0.236 0.156,-0.207 0.169,-0.182C0.182,-0.157 0.199,-0.137 0.222,-0.122C0.245,-0.107 0.271,-0.1 0.301,-0.1C0.332,-0.1 0.358,-0.107 0.381,-0.122C0.404,-0.137 0.421,-0.157 0.434,-0.182C0.447,-0.207 0.453,-0.236 0.453,-0.267C0.453,-0.299 0.447,-0.328 0.434,-0.353C0.421,-0.378 0.404,-0.398 0.381,-0.413C0.358,-0.428 0.332,-0.435 0.301,-0.435Z" style="fill:white;fill-rule:nonzero;"/>
                        </g>
                        <g transform="matrix(230.348,0,0,230.348,1366.82,3014)">
                            <path d="M0.125,-0C0.108,-0 0.093,-0.006 0.082,-0.018C0.071,-0.029 0.065,-0.044 0.065,-0.061L0.065,-0.474C0.065,-0.491 0.071,-0.506 0.082,-0.518C0.093,-0.529 0.108,-0.535 0.125,-0.535C0.142,-0.535 0.157,-0.529 0.168,-0.518C0.179,-0.506 0.185,-0.491 0.185,-0.474L0.185,-0.38L0.178,-0.447C0.185,-0.463 0.195,-0.477 0.207,-0.49C0.218,-0.502 0.231,-0.512 0.246,-0.521C0.261,-0.529 0.276,-0.535 0.293,-0.539C0.31,-0.543 0.326,-0.545 0.343,-0.545C0.363,-0.545 0.38,-0.539 0.394,-0.528C0.407,-0.517 0.414,-0.503 0.414,-0.488C0.414,-0.466 0.408,-0.45 0.397,-0.441C0.386,-0.431 0.373,-0.426 0.36,-0.426C0.347,-0.426 0.336,-0.428 0.326,-0.433C0.315,-0.438 0.303,-0.44 0.29,-0.44C0.278,-0.44 0.266,-0.437 0.254,-0.432C0.241,-0.426 0.23,-0.417 0.22,-0.405C0.209,-0.393 0.201,-0.378 0.195,-0.361C0.188,-0.343 0.185,-0.322 0.185,-0.298L0.185,-0.061C0.185,-0.044 0.179,-0.029 0.168,-0.018C0.157,-0.006 0.142,-0 0.125,-0Z" style="fill:white;fill-rule:nonzero;"/>
                        </g>
                        <g transform="matrix(230.348,0,0,230.348,1461.72,3014)">
                            <path d="M0.312,0.01C0.255,0.01 0.206,-0.002 0.165,-0.026C0.123,-0.049 0.091,-0.081 0.069,-0.122C0.046,-0.163 0.035,-0.209 0.035,-0.26C0.035,-0.32 0.047,-0.371 0.072,-0.414C0.096,-0.456 0.128,-0.488 0.167,-0.511C0.206,-0.534 0.248,-0.545 0.292,-0.545C0.326,-0.545 0.358,-0.538 0.389,-0.524C0.419,-0.51 0.446,-0.491 0.469,-0.467C0.492,-0.442 0.511,-0.414 0.525,-0.382C0.538,-0.35 0.545,-0.316 0.545,-0.28C0.544,-0.264 0.538,-0.251 0.526,-0.241C0.514,-0.231 0.5,-0.226 0.484,-0.226L0.102,-0.226L0.072,-0.326L0.439,-0.326L0.417,-0.306L0.417,-0.333C0.416,-0.352 0.409,-0.37 0.397,-0.385C0.384,-0.4 0.369,-0.413 0.351,-0.422C0.332,-0.431 0.313,-0.435 0.292,-0.435C0.272,-0.435 0.253,-0.432 0.236,-0.427C0.219,-0.422 0.204,-0.413 0.191,-0.4C0.178,-0.387 0.168,-0.37 0.161,-0.349C0.154,-0.328 0.15,-0.301 0.15,-0.268C0.15,-0.232 0.158,-0.202 0.173,-0.177C0.188,-0.152 0.207,-0.133 0.231,-0.12C0.254,-0.107 0.279,-0.1 0.306,-0.1C0.331,-0.1 0.35,-0.102 0.365,-0.106C0.38,-0.11 0.392,-0.115 0.401,-0.121C0.41,-0.126 0.418,-0.131 0.425,-0.135C0.437,-0.141 0.448,-0.144 0.459,-0.144C0.474,-0.144 0.486,-0.139 0.496,-0.129C0.505,-0.119 0.51,-0.107 0.51,-0.094C0.51,-0.076 0.501,-0.06 0.482,-0.045C0.465,-0.03 0.44,-0.017 0.409,-0.007C0.378,0.005 0.345,0.01 0.312,0.01Z" style="fill:white;fill-rule:nonzero;"/>
                        </g>
                        <g transform="matrix(230.348,0,0,230.348,1595.33,3014)">
                            <path d="M0.312,0.01C0.255,0.01 0.206,-0.002 0.165,-0.026C0.123,-0.049 0.091,-0.081 0.069,-0.122C0.046,-0.163 0.035,-0.209 0.035,-0.26C0.035,-0.32 0.047,-0.371 0.072,-0.414C0.096,-0.456 0.128,-0.488 0.167,-0.511C0.206,-0.534 0.248,-0.545 0.292,-0.545C0.326,-0.545 0.358,-0.538 0.389,-0.524C0.419,-0.51 0.446,-0.491 0.469,-0.467C0.492,-0.442 0.511,-0.414 0.525,-0.382C0.538,-0.35 0.545,-0.316 0.545,-0.28C0.544,-0.264 0.538,-0.251 0.526,-0.241C0.514,-0.231 0.5,-0.226 0.484,-0.226L0.102,-0.226L0.072,-0.326L0.439,-0.326L0.417,-0.306L0.417,-0.333C0.416,-0.352 0.409,-0.37 0.397,-0.385C0.384,-0.4 0.369,-0.413 0.351,-0.422C0.332,-0.431 0.313,-0.435 0.292,-0.435C0.272,-0.435 0.253,-0.432 0.236,-0.427C0.219,-0.422 0.204,-0.413 0.191,-0.4C0.178,-0.387 0.168,-0.37 0.161,-0.349C0.154,-0.328 0.15,-0.301 0.15,-0.268C0.15,-0.232 0.158,-0.202 0.173,-0.177C0.188,-0.152 0.207,-0.133 0.231,-0.12C0.254,-0.107 0.279,-0.1 0.306,-0.1C0.331,-0.1 0.35,-0.102 0.365,-0.106C0.38,-0.11 0.392,-0.115 0.401,-0.121C0.41,-0.126 0.418,-0.131 0.425,-0.135C0.437,-0.141 0.448,-0.144 0.459,-0.144C0.474,-0.144 0.486,-0.139 0.496,-0.129C0.505,-0.119 0.51,-0.107 0.51,-0.094C0.51,-0.076 0.501,-0.06 0.482,-0.045C0.465,-0.03 0.44,-0.017 0.409,-0.007C0.378,0.005 0.345,0.01 0.312,0.01Z" style="fill:white;fill-rule:nonzero;"/>
                        </g>
                        <g transform="matrix(230.348,0,0,230.348,1728.93,3014)">
                            <path d="M0.351,-0.545C0.4,-0.545 0.438,-0.535 0.464,-0.514C0.489,-0.493 0.507,-0.466 0.517,-0.432C0.526,-0.397 0.531,-0.359 0.531,-0.317L0.531,-0.061C0.531,-0.044 0.525,-0.029 0.514,-0.018C0.503,-0.006 0.488,-0 0.471,-0C0.454,-0 0.439,-0.006 0.428,-0.018C0.417,-0.029 0.411,-0.044 0.411,-0.061L0.411,-0.317C0.411,-0.339 0.408,-0.359 0.403,-0.377C0.397,-0.394 0.387,-0.408 0.372,-0.419C0.357,-0.43 0.336,-0.435 0.309,-0.435C0.282,-0.435 0.26,-0.43 0.242,-0.419C0.223,-0.408 0.209,-0.394 0.2,-0.377C0.19,-0.359 0.185,-0.339 0.185,-0.317L0.185,-0.061C0.185,-0.044 0.179,-0.029 0.168,-0.018C0.157,-0.006 0.142,-0 0.125,-0C0.108,-0 0.093,-0.006 0.082,-0.018C0.071,-0.029 0.065,-0.044 0.065,-0.061L0.065,-0.474C0.065,-0.491 0.071,-0.506 0.082,-0.518C0.093,-0.529 0.108,-0.535 0.125,-0.535C0.142,-0.535 0.157,-0.529 0.168,-0.518C0.179,-0.506 0.185,-0.491 0.185,-0.474L0.185,-0.431L0.17,-0.434C0.176,-0.445 0.185,-0.458 0.196,-0.471C0.207,-0.484 0.221,-0.496 0.236,-0.507C0.251,-0.518 0.269,-0.528 0.288,-0.535C0.307,-0.542 0.328,-0.545 0.351,-0.545Z" style="fill:white;fill-rule:nonzero;"/>
                        </g>
                        <g transform="matrix(230.348,0,0,230.348,1866.22,3014)">
                            <path d="M0.342,-0.545C0.389,-0.545 0.431,-0.533 0.468,-0.51C0.505,-0.486 0.534,-0.453 0.556,-0.412C0.577,-0.371 0.588,-0.323 0.588,-0.268C0.588,-0.213 0.577,-0.165 0.556,-0.124C0.534,-0.082 0.505,-0.049 0.469,-0.026C0.432,-0.002 0.391,0.01 0.346,0.01C0.319,0.01 0.294,0.006 0.271,-0.003C0.248,-0.012 0.227,-0.023 0.21,-0.036C0.192,-0.049 0.178,-0.063 0.169,-0.077C0.159,-0.09 0.154,-0.102 0.154,-0.111L0.185,-0.124L0.185,-0.051C0.185,-0.034 0.179,-0.019 0.168,-0.008C0.157,0.004 0.142,0.01 0.125,0.01C0.108,0.01 0.093,0.004 0.082,-0.007C0.071,-0.018 0.065,-0.033 0.065,-0.051L0.065,-0.679C0.065,-0.696 0.071,-0.711 0.082,-0.723C0.093,-0.734 0.108,-0.74 0.125,-0.74C0.142,-0.74 0.157,-0.734 0.168,-0.723C0.179,-0.711 0.185,-0.696 0.185,-0.679L0.185,-0.425L0.168,-0.434C0.168,-0.443 0.173,-0.453 0.182,-0.466C0.191,-0.478 0.204,-0.49 0.22,-0.503C0.236,-0.515 0.255,-0.525 0.276,-0.533C0.297,-0.541 0.319,-0.545 0.342,-0.545ZM0.327,-0.435C0.298,-0.435 0.272,-0.428 0.25,-0.413C0.228,-0.398 0.211,-0.379 0.199,-0.354C0.186,-0.329 0.18,-0.3 0.18,-0.268C0.18,-0.237 0.186,-0.208 0.199,-0.183C0.211,-0.157 0.228,-0.137 0.25,-0.122C0.272,-0.107 0.298,-0.1 0.327,-0.1C0.356,-0.1 0.382,-0.107 0.404,-0.122C0.425,-0.137 0.442,-0.157 0.455,-0.183C0.467,-0.208 0.473,-0.237 0.473,-0.268C0.473,-0.3 0.467,-0.329 0.455,-0.354C0.442,-0.379 0.425,-0.398 0.404,-0.413C0.382,-0.428 0.356,-0.435 0.327,-0.435Z" style="fill:white;fill-rule:nonzero;"/>
                        </g>
                        <g transform="matrix(230.348,0,0,230.348,2009.72,3014)">
                            <path d="M0.178,-0.061C0.178,-0.044 0.172,-0.029 0.161,-0.018C0.15,-0.006 0.135,-0 0.118,-0C0.101,-0 0.086,-0.006 0.075,-0.018C0.064,-0.029 0.058,-0.044 0.058,-0.061L0.058,-0.474C0.058,-0.491 0.064,-0.506 0.075,-0.518C0.086,-0.529 0.101,-0.535 0.118,-0.535C0.135,-0.535 0.15,-0.529 0.161,-0.518C0.172,-0.506 0.178,-0.491 0.178,-0.474L0.178,-0.061ZM0.117,-0.6C0.094,-0.6 0.078,-0.604 0.069,-0.611C0.06,-0.618 0.055,-0.631 0.055,-0.65L0.055,-0.669C0.055,-0.688 0.06,-0.702 0.071,-0.709C0.081,-0.716 0.097,-0.719 0.118,-0.719C0.141,-0.719 0.158,-0.715 0.167,-0.708C0.176,-0.701 0.181,-0.688 0.181,-0.669L0.181,-0.65C0.181,-0.631 0.176,-0.618 0.166,-0.611C0.156,-0.604 0.14,-0.6 0.117,-0.6Z" style="fill:white;fill-rule:nonzero;"/>
                        </g>
                        <g transform="matrix(230.348,0,0,230.348,2064.08,3014)">
                            <path d="M0.125,-0C0.108,-0 0.093,-0.006 0.082,-0.018C0.071,-0.029 0.065,-0.044 0.065,-0.061L0.065,-0.474C0.065,-0.491 0.071,-0.506 0.082,-0.518C0.093,-0.529 0.108,-0.535 0.125,-0.535C0.142,-0.535 0.157,-0.529 0.168,-0.518C0.179,-0.506 0.185,-0.491 0.185,-0.474L0.185,-0.38L0.178,-0.447C0.185,-0.463 0.195,-0.477 0.207,-0.49C0.218,-0.502 0.231,-0.512 0.246,-0.521C0.261,-0.529 0.276,-0.535 0.293,-0.539C0.31,-0.543 0.326,-0.545 0.343,-0.545C0.363,-0.545 0.38,-0.539 0.394,-0.528C0.407,-0.517 0.414,-0.503 0.414,-0.488C0.414,-0.466 0.408,-0.45 0.397,-0.441C0.386,-0.431 0.373,-0.426 0.36,-0.426C0.347,-0.426 0.336,-0.428 0.326,-0.433C0.315,-0.438 0.303,-0.44 0.29,-0.44C0.278,-0.44 0.266,-0.437 0.254,-0.432C0.241,-0.426 0.23,-0.417 0.22,-0.405C0.209,-0.393 0.201,-0.378 0.195,-0.361C0.188,-0.343 0.185,-0.322 0.185,-0.298L0.185,-0.061C0.185,-0.044 0.179,-0.029 0.168,-0.018C0.157,-0.006 0.142,-0 0.125,-0Z" style="fill:white;fill-rule:nonzero;"/>
                        </g>
                        <g transform="matrix(230.348,0,0,230.348,2158.99,3014)">
                            <path d="M0.498,-0.74C0.515,-0.74 0.53,-0.734 0.541,-0.723C0.552,-0.712 0.558,-0.697 0.558,-0.679L0.558,-0.061C0.558,-0.044 0.552,-0.029 0.541,-0.018C0.53,-0.006 0.515,-0 0.498,-0C0.481,-0 0.466,-0.006 0.455,-0.018C0.444,-0.029 0.438,-0.044 0.438,-0.061L0.438,-0.11L0.46,-0.101C0.46,-0.092 0.455,-0.082 0.446,-0.07C0.437,-0.057 0.424,-0.045 0.408,-0.033C0.392,-0.021 0.373,-0.011 0.352,-0.003C0.33,0.006 0.306,0.01 0.281,0.01C0.235,0.01 0.193,-0.002 0.156,-0.026C0.119,-0.049 0.089,-0.082 0.068,-0.124C0.046,-0.165 0.035,-0.213 0.035,-0.267C0.035,-0.322 0.046,-0.37 0.068,-0.412C0.089,-0.453 0.118,-0.486 0.155,-0.51C0.192,-0.533 0.232,-0.545 0.277,-0.545C0.306,-0.545 0.332,-0.541 0.356,-0.532C0.38,-0.523 0.401,-0.512 0.419,-0.499C0.436,-0.486 0.45,-0.472 0.46,-0.459C0.469,-0.445 0.474,-0.433 0.474,-0.424L0.438,-0.411L0.438,-0.679C0.438,-0.696 0.444,-0.711 0.455,-0.723C0.466,-0.734 0.481,-0.74 0.498,-0.74ZM0.296,-0.1C0.325,-0.1 0.351,-0.107 0.373,-0.122C0.395,-0.137 0.412,-0.157 0.425,-0.182C0.437,-0.207 0.443,-0.236 0.443,-0.267C0.443,-0.299 0.437,-0.328 0.425,-0.353C0.412,-0.378 0.395,-0.398 0.373,-0.413C0.351,-0.428 0.325,-0.435 0.296,-0.435C0.267,-0.435 0.242,-0.428 0.22,-0.413C0.198,-0.398 0.181,-0.378 0.169,-0.353C0.156,-0.328 0.15,-0.299 0.15,-0.267C0.15,-0.236 0.156,-0.207 0.169,-0.182C0.181,-0.157 0.198,-0.137 0.22,-0.122C0.242,-0.107 0.267,-0.1 0.296,-0.1Z" style="fill:white;fill-rule:nonzero;"/>
                        </g>
                    </g>
                    <g transform="matrix(1.34382,0,0,1.34382,-25.1746,-313.422)">
                        <g transform="matrix(151.152,0,0,151.152,967.16,3014)">
                            <path d="M0.346,-0.545C0.399,-0.545 0.439,-0.532 0.464,-0.507C0.489,-0.481 0.506,-0.448 0.514,-0.407L0.497,-0.416L0.505,-0.432C0.513,-0.447 0.525,-0.464 0.542,-0.482C0.559,-0.499 0.579,-0.514 0.603,-0.527C0.626,-0.539 0.653,-0.545 0.682,-0.545C0.73,-0.545 0.767,-0.535 0.792,-0.514C0.817,-0.493 0.834,-0.466 0.843,-0.432C0.852,-0.397 0.857,-0.359 0.857,-0.317L0.857,-0.061C0.857,-0.044 0.851,-0.029 0.84,-0.018C0.829,-0.006 0.814,-0 0.797,-0C0.78,-0 0.765,-0.006 0.754,-0.018C0.743,-0.029 0.737,-0.044 0.737,-0.061L0.737,-0.317C0.737,-0.339 0.734,-0.359 0.729,-0.377C0.724,-0.394 0.714,-0.408 0.7,-0.419C0.686,-0.43 0.666,-0.435 0.64,-0.435C0.615,-0.435 0.593,-0.43 0.575,-0.419C0.557,-0.408 0.544,-0.394 0.535,-0.377C0.526,-0.359 0.521,-0.339 0.521,-0.317L0.521,-0.061C0.521,-0.044 0.515,-0.029 0.504,-0.018C0.493,-0.006 0.478,-0 0.461,-0C0.444,-0 0.429,-0.006 0.418,-0.018C0.407,-0.029 0.401,-0.044 0.401,-0.061L0.401,-0.317C0.401,-0.339 0.398,-0.359 0.393,-0.377C0.388,-0.394 0.378,-0.408 0.364,-0.419C0.35,-0.43 0.33,-0.435 0.304,-0.435C0.279,-0.435 0.257,-0.43 0.239,-0.419C0.221,-0.408 0.208,-0.394 0.199,-0.377C0.19,-0.359 0.185,-0.339 0.185,-0.317L0.185,-0.061C0.185,-0.044 0.179,-0.029 0.168,-0.018C0.157,-0.006 0.142,-0 0.125,-0C0.108,-0 0.093,-0.006 0.082,-0.018C0.071,-0.029 0.065,-0.044 0.065,-0.061L0.065,-0.474C0.065,-0.491 0.071,-0.506 0.082,-0.518C0.093,-0.529 0.108,-0.535 0.125,-0.535C0.142,-0.535 0.157,-0.529 0.168,-0.518C0.179,-0.506 0.185,-0.491 0.185,-0.474L0.185,-0.431L0.17,-0.434C0.176,-0.445 0.184,-0.458 0.195,-0.471C0.206,-0.484 0.219,-0.496 0.234,-0.507C0.249,-0.518 0.266,-0.528 0.285,-0.535C0.304,-0.542 0.324,-0.545 0.346,-0.545Z" style="fill:url(#_Linear2);fill-rule:nonzero;"/>
                        </g>
                        <g transform="matrix(151.152,0,0,151.152,1106.52,3014)">
                            <path d="M0.312,0.01C0.255,0.01 0.206,-0.002 0.165,-0.026C0.123,-0.049 0.091,-0.081 0.069,-0.122C0.046,-0.163 0.035,-0.209 0.035,-0.26C0.035,-0.32 0.047,-0.371 0.072,-0.414C0.096,-0.456 0.128,-0.488 0.167,-0.511C0.206,-0.534 0.248,-0.545 0.292,-0.545C0.326,-0.545 0.358,-0.538 0.389,-0.524C0.419,-0.51 0.446,-0.491 0.469,-0.467C0.492,-0.442 0.511,-0.414 0.525,-0.382C0.538,-0.35 0.545,-0.316 0.545,-0.28C0.544,-0.264 0.538,-0.251 0.526,-0.241C0.514,-0.231 0.5,-0.226 0.484,-0.226L0.102,-0.226L0.072,-0.326L0.439,-0.326L0.417,-0.306L0.417,-0.333C0.416,-0.352 0.409,-0.37 0.397,-0.385C0.384,-0.4 0.369,-0.413 0.351,-0.422C0.332,-0.431 0.313,-0.435 0.292,-0.435C0.272,-0.435 0.253,-0.432 0.236,-0.427C0.219,-0.422 0.204,-0.413 0.191,-0.4C0.178,-0.387 0.168,-0.37 0.161,-0.349C0.154,-0.328 0.15,-0.301 0.15,-0.268C0.15,-0.232 0.158,-0.202 0.173,-0.177C0.188,-0.152 0.207,-0.133 0.231,-0.12C0.254,-0.107 0.279,-0.1 0.306,-0.1C0.331,-0.1 0.35,-0.102 0.365,-0.106C0.38,-0.11 0.392,-0.115 0.401,-0.121C0.41,-0.126 0.418,-0.131 0.425,-0.135C0.437,-0.141 0.448,-0.144 0.459,-0.144C0.474,-0.144 0.486,-0.139 0.496,-0.129C0.505,-0.119 0.51,-0.107 0.51,-0.094C0.51,-0.076 0.501,-0.06 0.482,-0.045C0.465,-0.03 0.44,-0.017 0.409,-0.007C0.378,0.005 0.345,0.01 0.312,0.01Z" style="fill:url(#_Linear3);fill-rule:nonzero;"/>
                        </g>
                        <g transform="matrix(151.152,0,0,151.152,1194.19,3014)">
                            <path d="M0.498,-0.74C0.515,-0.74 0.53,-0.734 0.541,-0.723C0.552,-0.712 0.558,-0.697 0.558,-0.679L0.558,-0.061C0.558,-0.044 0.552,-0.029 0.541,-0.018C0.53,-0.006 0.515,-0 0.498,-0C0.481,-0 0.466,-0.006 0.455,-0.018C0.444,-0.029 0.438,-0.044 0.438,-0.061L0.438,-0.11L0.46,-0.101C0.46,-0.092 0.455,-0.082 0.446,-0.07C0.437,-0.057 0.424,-0.045 0.408,-0.033C0.392,-0.021 0.373,-0.011 0.352,-0.003C0.33,0.006 0.306,0.01 0.281,0.01C0.235,0.01 0.193,-0.002 0.156,-0.026C0.119,-0.049 0.089,-0.082 0.068,-0.124C0.046,-0.165 0.035,-0.213 0.035,-0.267C0.035,-0.322 0.046,-0.37 0.068,-0.412C0.089,-0.453 0.118,-0.486 0.155,-0.51C0.192,-0.533 0.232,-0.545 0.277,-0.545C0.306,-0.545 0.332,-0.541 0.356,-0.532C0.38,-0.523 0.401,-0.512 0.419,-0.499C0.436,-0.486 0.45,-0.472 0.46,-0.459C0.469,-0.445 0.474,-0.433 0.474,-0.424L0.438,-0.411L0.438,-0.679C0.438,-0.696 0.444,-0.711 0.455,-0.723C0.466,-0.734 0.481,-0.74 0.498,-0.74ZM0.296,-0.1C0.325,-0.1 0.351,-0.107 0.373,-0.122C0.395,-0.137 0.412,-0.157 0.425,-0.182C0.437,-0.207 0.443,-0.236 0.443,-0.267C0.443,-0.299 0.437,-0.328 0.425,-0.353C0.412,-0.378 0.395,-0.398 0.373,-0.413C0.351,-0.428 0.325,-0.435 0.296,-0.435C0.267,-0.435 0.242,-0.428 0.22,-0.413C0.198,-0.398 0.181,-0.378 0.169,-0.353C0.156,-0.328 0.15,-0.299 0.15,-0.267C0.15,-0.236 0.156,-0.207 0.169,-0.182C0.181,-0.157 0.198,-0.137 0.22,-0.122C0.242,-0.107 0.267,-0.1 0.296,-0.1Z" style="fill:url(#_Linear4);fill-rule:nonzero;"/>
                        </g>
                        <g transform="matrix(151.152,0,0,151.152,1288.36,3014)">
                            <path d="M0.178,-0.061C0.178,-0.044 0.172,-0.029 0.161,-0.018C0.15,-0.006 0.135,-0 0.118,-0C0.101,-0 0.086,-0.006 0.075,-0.018C0.064,-0.029 0.058,-0.044 0.058,-0.061L0.058,-0.474C0.058,-0.491 0.064,-0.506 0.075,-0.518C0.086,-0.529 0.101,-0.535 0.118,-0.535C0.135,-0.535 0.15,-0.529 0.161,-0.518C0.172,-0.506 0.178,-0.491 0.178,-0.474L0.178,-0.061ZM0.117,-0.6C0.094,-0.6 0.078,-0.604 0.069,-0.611C0.06,-0.618 0.055,-0.631 0.055,-0.65L0.055,-0.669C0.055,-0.688 0.06,-0.702 0.071,-0.709C0.081,-0.716 0.097,-0.719 0.118,-0.719C0.141,-0.719 0.158,-0.715 0.167,-0.708C0.176,-0.701 0.181,-0.688 0.181,-0.669L0.181,-0.65C0.181,-0.631 0.176,-0.618 0.166,-0.611C0.156,-0.604 0.14,-0.6 0.117,-0.6Z" style="fill:url(#_Linear5);fill-rule:nonzero;"/>
                        </g>
                        <g transform="matrix(151.152,0,0,151.152,1324.03,3014)">
                            <path d="M0.498,-0.545C0.515,-0.545 0.53,-0.539 0.541,-0.528C0.552,-0.517 0.558,-0.502 0.558,-0.484L0.558,-0.061C0.558,-0.044 0.552,-0.029 0.541,-0.018C0.53,-0.006 0.515,-0 0.498,-0C0.481,-0 0.466,-0.006 0.455,-0.018C0.444,-0.029 0.438,-0.044 0.438,-0.061L0.438,-0.11L0.46,-0.101C0.46,-0.092 0.455,-0.082 0.446,-0.07C0.437,-0.057 0.424,-0.045 0.408,-0.033C0.392,-0.021 0.373,-0.011 0.352,-0.003C0.33,0.006 0.306,0.01 0.281,0.01C0.235,0.01 0.193,-0.002 0.156,-0.026C0.119,-0.049 0.089,-0.082 0.068,-0.124C0.046,-0.165 0.035,-0.213 0.035,-0.267C0.035,-0.322 0.046,-0.37 0.068,-0.412C0.089,-0.453 0.118,-0.486 0.155,-0.51C0.192,-0.533 0.232,-0.545 0.277,-0.545C0.306,-0.545 0.332,-0.541 0.356,-0.532C0.38,-0.523 0.401,-0.512 0.419,-0.499C0.436,-0.486 0.45,-0.472 0.46,-0.459C0.469,-0.445 0.474,-0.433 0.474,-0.424L0.438,-0.411L0.438,-0.484C0.438,-0.501 0.444,-0.516 0.455,-0.528C0.466,-0.539 0.481,-0.545 0.498,-0.545ZM0.296,-0.1C0.325,-0.1 0.351,-0.107 0.373,-0.122C0.395,-0.137 0.412,-0.157 0.425,-0.182C0.437,-0.207 0.443,-0.236 0.443,-0.267C0.443,-0.299 0.437,-0.328 0.425,-0.353C0.412,-0.378 0.395,-0.398 0.373,-0.413C0.351,-0.428 0.325,-0.435 0.296,-0.435C0.267,-0.435 0.242,-0.428 0.22,-0.413C0.198,-0.398 0.181,-0.378 0.169,-0.353C0.156,-0.328 0.15,-0.299 0.15,-0.267C0.15,-0.236 0.156,-0.207 0.169,-0.182C0.181,-0.157 0.198,-0.137 0.22,-0.122C0.242,-0.107 0.267,-0.1 0.296,-0.1Z" style="fill:url(#_Linear6);fill-rule:nonzero;"/>
                        </g>
                    </g>
                </g>
            </g>
        </g>
    </g>
    <defs>
        <linearGradient id="_Linear2" x1="0" y1="0" x2="1" y2="0" gradientUnits="userSpaceOnUse" gradientTransform="matrix(4.59243e-17,-0.75,0.75,4.59243e-17,1.42149,0.01)"><stop offset="0" style="stop-color:rgb(0,204,51);stop-opacity:1"/><stop offset="0.51" style="stop-color:rgb(0,182,45);stop-opacity:1"/><stop offset="1" style="stop-color:rgb(0,112,28);stop-opacity:1"/></linearGradient>
        <linearGradient id="_Linear3" x1="0" y1="0" x2="1" y2="0" gradientUnits="userSpaceOnUse" gradientTransform="matrix(4.59243e-17,-0.75,0.75,4.59243e-17,0.499494,0.01)"><stop offset="0" style="stop-color:rgb(0,204,51);stop-opacity:1"/><stop offset="0.51" style="stop-color:rgb(0,182,45);stop-opacity:1"/><stop offset="1" style="stop-color:rgb(0,112,28);stop-opacity:1"/></linearGradient>
        <linearGradient id="_Linear4" x1="0" y1="0" x2="1" y2="0" gradientUnits="userSpaceOnUse" gradientTransform="matrix(4.59243e-17,-0.75,0.75,4.59243e-17,-0.0805059,0.01)"><stop offset="0" style="stop-color:rgb(0,204,51);stop-opacity:1"/><stop offset="0.51" style="stop-color:rgb(0,182,45);stop-opacity:1"/><stop offset="1" style="stop-color:rgb(0,112,28);stop-opacity:1"/></linearGradient>
        <linearGradient id="_Linear5" x1="0" y1="0" x2="1" y2="0" gradientUnits="userSpaceOnUse" gradientTransform="matrix(4.59243e-17,-0.75,0.75,4.59243e-17,-0.703506,0.01)"><stop offset="0" style="stop-color:rgb(0,204,51);stop-opacity:1"/><stop offset="0.51" style="stop-color:rgb(0,182,45);stop-opacity:1"/><stop offset="1" style="stop-color:rgb(0,112,28);stop-opacity:1"/></linearGradient>
        <linearGradient id="_Linear6" x1="0" y1="0" x2="1" y2="0" gradientUnits="userSpaceOnUse" gradientTransform="matrix(4.59243e-17,-0.75,0.75,4.59243e-17,-0.939506,0.01)"><stop offset="0" style="stop-color:rgb(0,204,51);stop-opacity:1"/><stop offset="0.51" style="stop-color:rgb(0,182,45);stop-opacity:1"/><stop offset="1" style="stop-color:rgb(0,112,28);stop-opacity:1"/></linearGradient>
    </defs>
</svg>
